<svg width="8" height="14" viewBox="0 0 8 14" fill="none" xmlns="http://www.w3.org/2000/svg">
<path d="M0.292818 0.292817C0.105328 0.480347 6.6727e-07 0.734669 6.55678e-07 0.999849C6.44087e-07 1.26503 0.105328 1.51935 0.292818 1.70688L5.24282 6.65688L0.292817 11.6069C0.116388 11.7964 0.0203482 12.047 0.0249054 12.3059C0.0294625 12.5647 0.134261 12.8118 0.317252 12.995C0.500243 13.1782 0.747159 13.2832 1.00604 13.2881C1.26493 13.2929 1.5156 13.1972 1.70532 13.0209L7.36313 7.36469C7.55062 7.17716 7.65595 6.92284 7.65595 6.65766C7.65595 6.39248 7.55062 6.13816 7.36313 5.95063L1.70688 0.292817C1.51935 0.105327 1.26503 -2.79356e-07 0.999849 -2.90947e-07C0.734669 -3.02539e-07 0.480348 0.105327 0.292818 0.292817Z" fill="#131313"/>
</svg>
