<svg width="20" height="20" viewBox="0 0 20 20" fill="none" xmlns="http://www.w3.org/2000/svg">
<path fill-rule="evenodd" clip-rule="evenodd" d="M9.85302 12.5055L16.4818 19.1343C16.8335 19.486 17.3106 19.6836 17.808 19.6836C18.3055 19.6836 18.7825 19.486 19.1343 19.1343C19.486 18.7825 19.6836 18.3055 19.6836 17.808C19.6836 17.3106 19.486 16.8335 19.1343 16.4818L12.503 9.85304L19.133 3.22429C19.3071 3.05013 19.4452 2.84338 19.5394 2.61585C19.6335 2.38832 19.682 2.14448 19.6819 1.89823C19.6819 1.65198 19.6333 1.40815 19.539 1.18067C19.4447 0.953185 19.3066 0.746502 19.1324 0.572418C18.9582 0.398334 18.7515 0.26026 18.524 0.166078C18.2964 0.0718962 18.0526 0.0234512 17.8063 0.0235092C17.5601 0.0235673 17.3163 0.0721269 17.0888 0.166416C16.8613 0.260705 16.6546 0.398878 16.4805 0.573043L9.85302 7.20179L3.22427 0.573043C3.05139 0.393882 2.84456 0.250944 2.61585 0.152571C2.38714 0.0541979 2.14113 0.00235861 1.89217 7.86297e-05C1.64321 -0.00220135 1.39629 0.0451232 1.16582 0.139291C0.935343 0.233459 0.725931 0.372585 0.5498 0.54855C0.373669 0.724515 0.234346 0.933796 0.139961 1.16418C0.0455755 1.39457 -0.00198195 1.64144 6.3271e-05 1.8904C0.00210849 2.13936 0.0537152 2.38542 0.151873 2.61423C0.25003 2.84303 0.392773 3.05 0.571771 3.22304L7.20302 9.85304L0.573021 16.483C0.394023 16.6561 0.251281 16.8631 0.153123 17.0919C0.0549657 17.3207 0.0033584 17.5667 0.00131318 17.8157C-0.000732041 18.0646 0.0468254 18.3115 0.141211 18.5419C0.235596 18.7723 0.374919 18.9816 0.55105 19.1575C0.727181 19.3335 0.936593 19.4726 1.16707 19.5668C1.39754 19.661 1.64446 19.7083 1.89342 19.706C2.14238 19.7037 2.38839 19.6519 2.6171 19.5535C2.84581 19.4551 3.05264 19.3122 3.22552 19.133L9.85302 12.5055Z" fill="white"/>
</svg>
