<svg width="18" height="18" viewBox="0 0 18 18" fill="none" xmlns="http://www.w3.org/2000/svg">
<path d="M2.22256 18H0V10.4824H2.22256V18Z" fill="white"/>
<path d="M7.86643 0C8.07496 0 8.28144 0.0579044 8.44607 0.177022C8.71748 0.372907 8.86211 0.66952 8.84566 0.984375L8.58327 6.23548H17.2094C17.6978 6.52401 18 7.01206 18 7.51765C17.9998 7.95417 17.8016 8.36749 17.4615 8.65588L16.8613 9.15882L17.242 9.83051C17.3677 10.052 17.4338 10.301 17.4324 10.5535C17.4323 10.9901 17.234 11.4059 16.8939 11.6917L16.2936 12.1947L16.6744 12.8664C16.8 13.0878 16.8662 13.3369 16.8647 13.5893C16.8647 14.0261 16.6665 14.4417 16.3262 14.7276L15.726 15.2305L16.1067 15.9022C16.2323 16.1236 16.2968 16.3728 16.2954 16.6252C16.2954 17.218 15.934 17.7531 15.3744 17.9967H3.97866V10.3963L6.70884 0.853676C6.77931 0.609392 6.93058 0.394036 7.13929 0.23989C7.34815 0.0856729 7.60343 0.00175443 7.86643 0Z" fill="white"/>
</svg>
