<svg width="44" height="44" viewBox="0 0 44 44" fill="none" xmlns="http://www.w3.org/2000/svg">
<rect width="44" height="44" rx="22" fill="#26211D"/>
<g clip-path="url(#clip0_950_547)">
<path d="M17.5226 10.5223C17.1882 10.8568 17.0003 11.3104 17.0003 11.7834C17.0003 12.2564 17.1882 12.7101 17.5226 13.0446L26.3519 21.8739L17.5226 30.7032C17.2079 31.0413 17.0366 31.4882 17.0447 31.95C17.0529 32.4118 17.2398 32.8524 17.5662 33.1792C17.8926 33.506 18.333 33.6934 18.7948 33.702C19.2566 33.7106 19.7037 33.5398 20.0421 33.2255L30.1339 23.1364C30.4684 22.8019 30.6562 22.3483 30.6562 21.8753C30.6562 21.4023 30.4684 20.9487 30.1339 20.6142L20.0449 10.5223C19.7104 10.1879 19.2567 10 18.7837 10C18.3107 10 17.8571 10.1879 17.5226 10.5223Z" fill="white"/>
</g>
<defs>
<clipPath id="clip0_950_547">
<rect width="23.7023" height="13.6559" fill="white" transform="translate(30.6562 10) rotate(90)"/>
</clipPath>
</defs>
</svg>
