<svg width="36" height="36" viewBox="0 0 36 36" fill="none" xmlns="http://www.w3.org/2000/svg">
<rect x="36" y="36" width="36" height="36" rx="18" transform="rotate(-180 36 36)" fill="#F6EEDF"/>
<g clip-path="url(#clip0_1101_34)">
<path d="M20.6175 25.6175C20.8624 25.3726 21 25.0404 21 24.694C21 24.3477 20.8624 24.0155 20.6175 23.7705L14.152 17.305L20.6175 10.8394C20.848 10.5919 20.9734 10.2646 20.9675 9.92641C20.9615 9.58826 20.8246 9.26559 20.5856 9.02631C20.3466 8.78703 20.0241 8.64978 19.6859 8.64346C19.3478 8.63713 19.0204 8.76221 18.7726 8.99239L11.3825 16.3804C11.1376 16.6254 11 16.9576 11 17.3039C11 17.6503 11.1376 17.9825 11.3825 18.2274L18.7705 25.6175C19.0155 25.8624 19.3477 26 19.694 26C20.0404 26 20.3726 25.8624 20.6175 25.6175Z" fill="#26211D"/>
</g>
<defs>
<clipPath id="clip0_1101_34">
<rect width="17.3568" height="10" fill="white" transform="translate(11 26) rotate(-90)"/>
</clipPath>
</defs>
</svg>
