<svg width="36" height="36" viewBox="0 0 36 36" fill="none" xmlns="http://www.w3.org/2000/svg">
<rect width="36" height="36" rx="18" fill="#F6EEDF"/>
<g clip-path="url(#clip0_1101_37)">
<path d="M15.3825 9.70278C15.1376 9.94773 15 10.2799 15 10.6263C15 10.9727 15.1376 11.3048 15.3825 11.5498L21.848 18.0154L15.3825 24.4809C15.152 24.7285 15.0266 25.0557 15.0325 25.3939C15.0385 25.7321 15.1754 26.0547 15.4144 26.294C15.6534 26.5333 15.9759 26.6705 16.3141 26.6769C16.6522 26.6832 16.9796 26.5581 17.2274 26.3279L24.6175 18.9399C24.8624 18.6949 25 18.3627 25 18.0164C25 17.67 24.8624 17.3378 24.6175 17.0929L17.2295 9.70278C16.9845 9.45789 16.6523 9.32031 16.306 9.32031C15.9596 9.32031 15.6274 9.45789 15.3825 9.70278Z" fill="#26211D"/>
</g>
<defs>
<clipPath id="clip0_1101_37">
<rect width="17.3568" height="10" fill="white" transform="translate(25 9.32031) rotate(90)"/>
</clipPath>
</defs>
</svg>
