<svg width="44" height="44" viewBox="0 0 44 44" fill="none" xmlns="http://www.w3.org/2000/svg">
<rect x="44" y="44" width="44" height="44" rx="22" transform="rotate(-180 44 44)" fill="#74724C"/>
<g clip-path="url(#clip0_950_544)">
<path d="M26.4774 33.4777C26.8118 33.1432 26.9997 32.6896 26.9997 32.2166C26.9997 31.7436 26.8118 31.2899 26.4774 30.9554L17.6481 22.1261L26.4774 13.2968C26.7921 12.9587 26.9634 12.5118 26.9553 12.05C26.9471 11.5882 26.7602 11.1476 26.4338 10.8208C26.1074 10.4941 25.667 10.3066 25.2052 10.298C24.7434 10.2894 24.2963 10.4602 23.9579 10.7745L13.8661 20.8636C13.5316 21.1981 13.3438 21.6517 13.3438 22.1247C13.3438 22.5977 13.5316 23.0513 13.8661 23.3858L23.9551 33.4777C24.2896 33.8121 24.7433 34 25.2163 34C25.6893 34 26.1429 33.8121 26.4774 33.4777Z" fill="white"/>
</g>
<defs>
<clipPath id="clip0_950_544">
<rect width="23.7023" height="13.6559" fill="white" transform="translate(13.3438 34) rotate(-90)"/>
</clipPath>
</defs>
</svg>
