<svg width="22" height="22" viewBox="0 0 22 22" fill="none" xmlns="http://www.w3.org/2000/svg">
<path d="M4.22256 20H2V12.4824H4.22256V20Z" fill="white"/>
<path d="M9.86643 2C10.075 2 10.2814 2.0579 10.4461 2.17702C10.7175 2.37291 10.8621 2.66952 10.8457 2.98438L10.5833 8.23548H19.2094C19.6978 8.52401 20 9.01206 20 9.51765C19.9998 9.95417 19.8016 10.3675 19.4615 10.6559L18.8613 11.1588L19.242 11.8305C19.3677 12.052 19.4338 12.301 19.4324 12.5535C19.4323 12.9901 19.234 13.4059 18.8939 13.6917L18.2936 14.1947L18.6744 14.8664C18.8 15.0878 18.8662 15.3369 18.8647 15.5893C18.8647 16.0261 18.6665 16.4417 18.3262 16.7276L17.726 17.2305L18.1067 17.9022C18.2323 18.1236 18.2968 18.3728 18.2954 18.6252C18.2954 19.218 17.934 19.7531 17.3744 19.9967H5.97866V12.3963L8.70884 2.85368C8.77931 2.60939 8.93058 2.39404 9.13929 2.23989C9.34815 2.08567 9.60343 2.00175 9.86643 2Z" fill="white"/>
</svg>
