<svg width="17" height="17" viewBox="0 0 17 17" fill="none" xmlns="http://www.w3.org/2000/svg">
<path d="M7.46008 1.19072C7.75943 0.269414 9.06284 0.269411 9.36219 1.19072L10.544 4.82801C10.6779 5.24003 11.0618 5.51899 11.4951 5.51899H15.3195C16.2883 5.51899 16.691 6.75861 15.9073 7.32801L12.8133 9.57598C12.4628 9.83062 12.3161 10.282 12.45 10.694L13.6318 14.3313C13.9312 15.2526 12.8767 16.0187 12.093 15.4493L8.99892 13.2014C8.64843 12.9467 8.17384 12.9467 7.82335 13.2014L4.72929 15.4493C3.94557 16.0187 2.89109 15.2526 3.19044 14.3313L4.37227 10.694C4.50614 10.282 4.35949 9.83062 4.009 9.57598L0.914939 7.32801C0.131225 6.75861 0.534 5.51899 1.50272 5.51899H5.32719C5.76042 5.51899 6.14438 5.24003 6.27825 4.82801L7.46008 1.19072Z" stroke="#131313"/>
</svg>
